<mxfile host="app.diagrams.net" modified="2022-03-03T04:01:18.097Z" agent="5.0 (Macintosh; Intel Mac OS X 10_15_7) AppleWebKit/537.36 (KHTML, like Gecko) Chrome/98.0.4758.109 Safari/537.36" etag="NWboobhchisGdzOs1gXA" version="16.6.5" type="github">
  <diagram id="UW2Let9FedXbePVIwO7e" name="Page-1">
    <mxGraphModel dx="1881" dy="1079" grid="1" gridSize="15" guides="1" tooltips="1" connect="1" arrows="1" fold="1" page="1" pageScale="1" pageWidth="850" pageHeight="1100" math="0" shadow="1">
      <root>
        <mxCell id="0" />
        <mxCell id="1" parent="0" />
        <mxCell id="ZzOdG_4jZLLu2tyRgjDv-15" value="" style="shape=cylinder3;whiteSpace=wrap;html=1;boundedLbl=1;backgroundOutline=1;size=9;strokeColor=default;fillColor=none;gradientColor=#ffffff;dashed=1;dashPattern=1 1;" parent="1" vertex="1">
          <mxGeometry x="1186" y="166" width="195" height="382" as="geometry" />
        </mxCell>
        <mxCell id="NkGoriXdBeGFRCCLlbzc-29" value="PPA-backend Service (node)" style="swimlane;rounded=1;dashed=1;fillColor=#b1ddf0;strokeColor=#10739e;swimlaneFillColor=#F5FAFF;gradientColor=#ffffff;" parent="1" vertex="1">
          <mxGeometry x="545" y="393" width="527" height="274" as="geometry" />
        </mxCell>
        <mxCell id="NkGoriXdBeGFRCCLlbzc-30" value="GET /sensors or /map" style="swimlane;fontStyle=0;childLayout=stackLayout;horizontal=1;startSize=30;horizontalStack=0;resizeParent=1;resizeParentMax=0;resizeLast=0;collapsible=1;marginBottom=0;rounded=1;" parent="NkGoriXdBeGFRCCLlbzc-29" vertex="1">
          <mxGeometry x="21" y="46" width="204" height="90" as="geometry" />
        </mxCell>
        <mxCell id="NkGoriXdBeGFRCCLlbzc-31" value="RQ: List&lt;SensorKey&gt;" style="text;strokeColor=none;fillColor=none;align=left;verticalAlign=middle;spacingLeft=4;spacingRight=4;overflow=hidden;points=[[0,0.5],[1,0.5]];portConstraint=eastwest;rotatable=0;rounded=1;" parent="NkGoriXdBeGFRCCLlbzc-30" vertex="1">
          <mxGeometry y="30" width="204" height="30" as="geometry" />
        </mxCell>
        <mxCell id="NkGoriXdBeGFRCCLlbzc-32" value="RS: (List) Sensor+Read&#xa;        not-paginated" style="text;strokeColor=none;fillColor=none;align=left;verticalAlign=middle;spacingLeft=4;spacingRight=4;overflow=hidden;points=[[0,0.5],[1,0.5]];portConstraint=eastwest;rotatable=0;rounded=1;fontStyle=1" parent="NkGoriXdBeGFRCCLlbzc-30" vertex="1">
          <mxGeometry y="60" width="204" height="30" as="geometry" />
        </mxCell>
        <mxCell id="ZzOdG_4jZLLu2tyRgjDv-20" value="fnMergeSensors_InMemory()" style="swimlane;fontStyle=0;childLayout=stackLayout;horizontal=1;startSize=30;horizontalStack=0;resizeParent=1;resizeParentMax=0;resizeLast=0;collapsible=1;marginBottom=0;rounded=1;" parent="NkGoriXdBeGFRCCLlbzc-29" vertex="1">
          <mxGeometry x="283" y="96" width="220" height="120" as="geometry" />
        </mxCell>
        <mxCell id="ZzOdG_4jZLLu2tyRgjDv-21" value="1) Read all 5 sources from db" style="text;strokeColor=none;fillColor=none;align=left;verticalAlign=middle;spacingLeft=4;spacingRight=4;overflow=hidden;points=[[0,0.5],[1,0.5]];portConstraint=eastwest;rotatable=0;rounded=1;" parent="ZzOdG_4jZLLu2tyRgjDv-20" vertex="1">
          <mxGeometry y="30" width="220" height="30" as="geometry" />
        </mxCell>
        <mxCell id="ZzOdG_4jZLLu2tyRgjDv-23" value="2) Merge/Filter/Sort in memory" style="text;strokeColor=none;fillColor=none;align=left;verticalAlign=middle;spacingLeft=4;spacingRight=4;overflow=hidden;points=[[0,0.5],[1,0.5]];portConstraint=eastwest;rotatable=0;rounded=1;" parent="ZzOdG_4jZLLu2tyRgjDv-20" vertex="1">
          <mxGeometry y="60" width="220" height="30" as="geometry" />
        </mxCell>
        <mxCell id="ZzOdG_4jZLLu2tyRgjDv-24" value="3) Return all Sensors (not paginated)" style="text;strokeColor=none;fillColor=none;align=left;verticalAlign=middle;spacingLeft=4;spacingRight=4;overflow=hidden;points=[[0,0.5],[1,0.5]];portConstraint=eastwest;rotatable=0;rounded=1;" parent="ZzOdG_4jZLLu2tyRgjDv-20" vertex="1">
          <mxGeometry y="90" width="220" height="30" as="geometry" />
        </mxCell>
        <mxCell id="ZzOdG_4jZLLu2tyRgjDv-33" value="&lt;b&gt;A.1.2.1&lt;/b&gt;" style="ellipse;whiteSpace=wrap;html=1;gradientColor=#ffffff;fillColor=#3399FF;" parent="NkGoriXdBeGFRCCLlbzc-29" vertex="1">
          <mxGeometry x="241" y="57" width="45" height="30" as="geometry" />
        </mxCell>
        <mxCell id="ZzOdG_4jZLLu2tyRgjDv-43" value="GET /dashboard or /aggByZone" style="swimlane;fontStyle=0;childLayout=stackLayout;horizontal=1;startSize=30;horizontalStack=0;resizeParent=1;resizeParentMax=0;resizeLast=0;collapsible=1;marginBottom=0;rounded=1;" parent="NkGoriXdBeGFRCCLlbzc-29" vertex="1">
          <mxGeometry x="21" y="159" width="204" height="90" as="geometry" />
        </mxCell>
        <mxCell id="ZzOdG_4jZLLu2tyRgjDv-44" value="RQ: List&lt;SensorKey&gt;" style="text;strokeColor=none;fillColor=none;align=left;verticalAlign=middle;spacingLeft=4;spacingRight=4;overflow=hidden;points=[[0,0.5],[1,0.5]];portConstraint=eastwest;rotatable=0;rounded=1;" parent="ZzOdG_4jZLLu2tyRgjDv-43" vertex="1">
          <mxGeometry y="30" width="204" height="30" as="geometry" />
        </mxCell>
        <mxCell id="ZzOdG_4jZLLu2tyRgjDv-45" value="RS: Aggregate (Manually)" style="text;strokeColor=none;fillColor=none;align=left;verticalAlign=middle;spacingLeft=4;spacingRight=4;overflow=hidden;points=[[0,0.5],[1,0.5]];portConstraint=eastwest;rotatable=0;rounded=1;fontStyle=1" parent="ZzOdG_4jZLLu2tyRgjDv-43" vertex="1">
          <mxGeometry y="60" width="204" height="30" as="geometry" />
        </mxCell>
        <mxCell id="ZzOdG_4jZLLu2tyRgjDv-48" value="" style="endArrow=classic;startArrow=classic;html=1;rounded=0;shadow=0;fontSize=17;fontColor=#999999;strokeColor=#949494;entryX=0;entryY=0.25;entryDx=0;entryDy=0;exitX=1;exitY=0.5;exitDx=0;exitDy=0;" parent="NkGoriXdBeGFRCCLlbzc-29" source="NkGoriXdBeGFRCCLlbzc-31" target="ZzOdG_4jZLLu2tyRgjDv-20" edge="1">
          <mxGeometry width="50" height="50" relative="1" as="geometry">
            <mxPoint x="152" y="398" as="sourcePoint" />
            <mxPoint x="202" y="348" as="targetPoint" />
          </mxGeometry>
        </mxCell>
        <mxCell id="ZzOdG_4jZLLu2tyRgjDv-49" value="" style="endArrow=classic;startArrow=classic;html=1;rounded=0;shadow=0;fontSize=17;fontColor=#999999;strokeColor=#949494;entryX=0;entryY=0.25;entryDx=0;entryDy=0;exitX=1;exitY=0.5;exitDx=0;exitDy=0;" parent="NkGoriXdBeGFRCCLlbzc-29" source="ZzOdG_4jZLLu2tyRgjDv-44" target="ZzOdG_4jZLLu2tyRgjDv-20" edge="1">
          <mxGeometry width="50" height="50" relative="1" as="geometry">
            <mxPoint x="216" y="100" as="sourcePoint" />
            <mxPoint x="290" y="96" as="targetPoint" />
          </mxGeometry>
        </mxCell>
        <mxCell id="GJOkn2DgcXXOF6PlL42Y-2" value="PPA-API Service (java)" style="swimlane;rounded=1;dashed=1;fillColor=#b1ddf0;strokeColor=#10739e;swimlaneFillColor=#CCE5FF;gradientColor=#ffffff;" parent="1" vertex="1">
          <mxGeometry x="780" y="37" width="292" height="158" as="geometry" />
        </mxCell>
        <mxCell id="GJOkn2DgcXXOF6PlL42Y-38" value="POST /api/ingest/device+site" style="swimlane;fontStyle=0;childLayout=stackLayout;horizontal=1;startSize=30;horizontalStack=0;resizeParent=1;resizeParentMax=0;resizeLast=0;collapsible=1;marginBottom=0;rounded=1;" parent="GJOkn2DgcXXOF6PlL42Y-2" vertex="1">
          <mxGeometry x="21" y="40" width="225" height="90" as="geometry" />
        </mxCell>
        <mxCell id="GJOkn2DgcXXOF6PlL42Y-39" value="RQ: Csv file" style="text;strokeColor=none;fillColor=none;align=left;verticalAlign=middle;spacingLeft=4;spacingRight=4;overflow=hidden;points=[[0,0.5],[1,0.5]];portConstraint=eastwest;rotatable=0;rounded=1;" parent="GJOkn2DgcXXOF6PlL42Y-38" vertex="1">
          <mxGeometry y="30" width="225" height="30" as="geometry" />
        </mxCell>
        <mxCell id="GJOkn2DgcXXOF6PlL42Y-40" value="RS: parse+persist metrics/count" style="text;strokeColor=none;fillColor=none;align=left;verticalAlign=middle;spacingLeft=4;spacingRight=4;overflow=hidden;points=[[0,0.5],[1,0.5]];portConstraint=eastwest;rotatable=0;rounded=1;" parent="GJOkn2DgcXXOF6PlL42Y-38" vertex="1">
          <mxGeometry y="60" width="225" height="30" as="geometry" />
        </mxCell>
        <mxCell id="GJOkn2DgcXXOF6PlL42Y-1" value="U I" style="swimlane;rounded=1;dashed=1;fillColor=#dae8fc;strokeColor=#6c8ebf;gradientColor=#ffffff;swimlaneFillColor=#D5E8D4;" parent="1" vertex="1">
          <mxGeometry x="212" y="22" width="238" height="645" as="geometry" />
        </mxCell>
        <mxCell id="GJOkn2DgcXXOF6PlL42Y-27" value="&amp;nbsp;Sensor + Site&amp;nbsp;&lt;br&gt;CSV Upload" style="endArrow=classic;html=1;rounded=0;entryX=0;entryY=0.5;entryDx=0;entryDy=0;" parent="GJOkn2DgcXXOF6PlL42Y-1" target="GJOkn2DgcXXOF6PlL42Y-31" edge="1">
          <mxGeometry width="50" height="50" relative="1" as="geometry">
            <mxPoint x="-152" y="222.3724489795918" as="sourcePoint" />
            <mxPoint x="29" y="70" as="targetPoint" />
          </mxGeometry>
        </mxCell>
        <mxCell id="GJOkn2DgcXXOF6PlL42Y-30" value="Ingest Sensor + Site Data" style="swimlane;fontStyle=0;childLayout=stackLayout;horizontal=1;startSize=30;horizontalStack=0;resizeParent=1;resizeParentMax=0;resizeLast=0;collapsible=1;marginBottom=0;rounded=1;labelBackgroundColor=none;fillColor=#b1ddf0;strokeColor=#10739e;" parent="GJOkn2DgcXXOF6PlL42Y-1" vertex="1">
          <mxGeometry x="26" y="39.91" width="184" height="90" as="geometry" />
        </mxCell>
        <mxCell id="GJOkn2DgcXXOF6PlL42Y-31" value="RQ: Csv file" style="text;strokeColor=none;fillColor=none;align=left;verticalAlign=middle;spacingLeft=4;spacingRight=4;overflow=hidden;points=[[0,0.5],[1,0.5]];portConstraint=eastwest;rotatable=0;rounded=1;" parent="GJOkn2DgcXXOF6PlL42Y-30" vertex="1">
          <mxGeometry y="30" width="184" height="30" as="geometry" />
        </mxCell>
        <mxCell id="GJOkn2DgcXXOF6PlL42Y-32" value="RS: render metrics" style="text;strokeColor=none;fillColor=none;align=left;verticalAlign=middle;spacingLeft=4;spacingRight=4;overflow=hidden;points=[[0,0.5],[1,0.5]];portConstraint=eastwest;rotatable=0;rounded=1;" parent="GJOkn2DgcXXOF6PlL42Y-30" vertex="1">
          <mxGeometry y="60" width="184" height="30" as="geometry" />
        </mxCell>
        <mxCell id="GJOkn2DgcXXOF6PlL42Y-12" value="Sensor and Analysis Map" style="swimlane;fontStyle=0;childLayout=stackLayout;horizontal=1;startSize=30;horizontalStack=0;resizeParent=1;resizeParentMax=0;resizeLast=0;collapsible=1;marginBottom=0;rounded=1;labelBackgroundColor=none;fillColor=#b1ddf0;strokeColor=#10739e;" parent="GJOkn2DgcXXOF6PlL42Y-1" vertex="1">
          <mxGeometry x="30.5" y="345" width="180" height="90" as="geometry" />
        </mxCell>
        <mxCell id="GJOkn2DgcXXOF6PlL42Y-13" value="RQ: Search Sensors with Site" style="text;strokeColor=none;fillColor=none;align=left;verticalAlign=middle;spacingLeft=4;spacingRight=4;overflow=hidden;points=[[0,0.5],[1,0.5]];portConstraint=eastwest;rotatable=0;rounded=1;" parent="GJOkn2DgcXXOF6PlL42Y-12" vertex="1">
          <mxGeometry y="30" width="180" height="30" as="geometry" />
        </mxCell>
        <mxCell id="ZzOdG_4jZLLu2tyRgjDv-3" value="RS: Merged Sensor/Site Info " style="text;strokeColor=none;fillColor=none;align=left;verticalAlign=middle;spacingLeft=4;spacingRight=4;overflow=hidden;points=[[0,0.5],[1,0.5]];portConstraint=eastwest;rotatable=0;rounded=1;" parent="GJOkn2DgcXXOF6PlL42Y-12" vertex="1">
          <mxGeometry y="60" width="180" height="30" as="geometry" />
        </mxCell>
        <mxCell id="ZzOdG_4jZLLu2tyRgjDv-40" value="Dashboard" style="swimlane;fontStyle=0;childLayout=stackLayout;horizontal=1;startSize=30;horizontalStack=0;resizeParent=1;resizeParentMax=0;resizeLast=0;collapsible=1;marginBottom=0;rounded=1;labelBackgroundColor=none;fillColor=#b1ddf0;strokeColor=#10739e;" parent="GJOkn2DgcXXOF6PlL42Y-1" vertex="1">
          <mxGeometry x="32.5" y="505" width="180" height="90" as="geometry" />
        </mxCell>
        <mxCell id="ZzOdG_4jZLLu2tyRgjDv-41" value="RQ: 24 hr Agg + Agg by Zone" style="text;strokeColor=none;fillColor=none;align=left;verticalAlign=middle;spacingLeft=4;spacingRight=4;overflow=hidden;points=[[0,0.5],[1,0.5]];portConstraint=eastwest;rotatable=0;rounded=1;" parent="ZzOdG_4jZLLu2tyRgjDv-40" vertex="1">
          <mxGeometry y="30" width="180" height="30" as="geometry" />
        </mxCell>
        <mxCell id="ZzOdG_4jZLLu2tyRgjDv-42" value="RS: Dashboard Agg. Data" style="text;strokeColor=none;fillColor=none;align=left;verticalAlign=middle;spacingLeft=4;spacingRight=4;overflow=hidden;points=[[0,0.5],[1,0.5]];portConstraint=eastwest;rotatable=0;rounded=1;" parent="ZzOdG_4jZLLu2tyRgjDv-40" vertex="1">
          <mxGeometry y="60" width="180" height="30" as="geometry" />
        </mxCell>
        <mxCell id="GJOkn2DgcXXOF6PlL42Y-5" value="PPA &lt;br&gt;User" style="shape=umlActor;verticalLabelPosition=bottom;verticalAlign=top;html=1;outlineConnect=0;rounded=1;" parent="1" vertex="1">
          <mxGeometry x="30" y="220" width="30" height="60" as="geometry" />
        </mxCell>
        <mxCell id="GJOkn2DgcXXOF6PlL42Y-92" value="" style="endArrow=classic;html=1;rounded=0;entryX=0;entryY=0.5;entryDx=0;entryDy=0;exitX=1;exitY=0.5;exitDx=0;exitDy=0;" parent="1" source="GJOkn2DgcXXOF6PlL42Y-31" target="GJOkn2DgcXXOF6PlL42Y-39" edge="1">
          <mxGeometry width="50" height="50" relative="1" as="geometry">
            <mxPoint x="720" y="218.90999999999997" as="sourcePoint" />
            <mxPoint x="770" y="168.90999999999997" as="targetPoint" />
          </mxGeometry>
        </mxCell>
        <mxCell id="GJOkn2DgcXXOF6PlL42Y-93" value="" style="endArrow=classic;html=1;rounded=0;entryX=1;entryY=0.5;entryDx=0;entryDy=0;exitX=0;exitY=0.5;exitDx=0;exitDy=0;" parent="1" source="GJOkn2DgcXXOF6PlL42Y-40" target="GJOkn2DgcXXOF6PlL42Y-32" edge="1">
          <mxGeometry width="50" height="50" relative="1" as="geometry">
            <mxPoint x="720" y="218.90999999999997" as="sourcePoint" />
            <mxPoint x="770" y="168.90999999999997" as="targetPoint" />
          </mxGeometry>
        </mxCell>
        <mxCell id="GJOkn2DgcXXOF6PlL42Y-94" value="" style="endArrow=classic;html=1;rounded=0;entryX=0;entryY=0.5;entryDx=0;entryDy=0;exitX=1;exitY=0.5;exitDx=0;exitDy=0;" parent="1" source="GJOkn2DgcXXOF6PlL42Y-39" target="ZzOdG_4jZLLu2tyRgjDv-11" edge="1">
          <mxGeometry width="50" height="50" relative="1" as="geometry">
            <mxPoint x="929" y="107" as="sourcePoint" />
            <mxPoint x="1041" y="52" as="targetPoint" />
          </mxGeometry>
        </mxCell>
        <mxCell id="NkGoriXdBeGFRCCLlbzc-1" value="View Senors&lt;br&gt;/ Maps&lt;br&gt;/ Reads" style="endArrow=classic;html=1;rounded=0;entryX=0;entryY=0.5;entryDx=0;entryDy=0;" parent="1" source="GJOkn2DgcXXOF6PlL42Y-5" target="GJOkn2DgcXXOF6PlL42Y-13" edge="1">
          <mxGeometry width="50" height="50" relative="1" as="geometry">
            <mxPoint x="75" y="259.3724489795918" as="sourcePoint" />
            <mxPoint x="225" y="397" as="targetPoint" />
          </mxGeometry>
        </mxCell>
        <mxCell id="NkGoriXdBeGFRCCLlbzc-13" value="&lt;b&gt;A.1.1&lt;/b&gt;" style="ellipse;whiteSpace=wrap;html=1;gradientColor=#ffffff;fillColor=#3399FF;" parent="1" vertex="1">
          <mxGeometry x="468" y="66" width="45" height="30" as="geometry" />
        </mxCell>
        <mxCell id="TNVdTlEFQuvaBfnlJwtW-4" value="&lt;b&gt;A.1.2&lt;/b&gt;" style="ellipse;whiteSpace=wrap;html=1;gradientColor=#ffffff;fillColor=#3399FF;" parent="1" vertex="1">
          <mxGeometry x="465" y="365" width="45" height="30" as="geometry" />
        </mxCell>
        <mxCell id="NkGoriXdBeGFRCCLlbzc-37" value="" style="endArrow=classic;html=1;rounded=0;entryX=0;entryY=0.5;entryDx=0;entryDy=0;exitX=1;exitY=0.5;exitDx=0;exitDy=0;" parent="1" source="GJOkn2DgcXXOF6PlL42Y-13" target="NkGoriXdBeGFRCCLlbzc-31" edge="1">
          <mxGeometry width="50" height="50" relative="1" as="geometry">
            <mxPoint x="418" y="410" as="sourcePoint" />
            <mxPoint x="543" y="485" as="targetPoint" />
          </mxGeometry>
        </mxCell>
        <mxCell id="NkGoriXdBeGFRCCLlbzc-39" value="" style="endArrow=classic;html=1;rounded=0;entryX=1;entryY=0.5;entryDx=0;entryDy=0;exitX=0;exitY=0.5;exitDx=0;exitDy=0;" parent="1" source="NkGoriXdBeGFRCCLlbzc-32" target="ZzOdG_4jZLLu2tyRgjDv-3" edge="1">
          <mxGeometry width="50" height="50" relative="1" as="geometry">
            <mxPoint x="543" y="515" as="sourcePoint" />
            <mxPoint x="425" y="623.9099999999999" as="targetPoint" />
          </mxGeometry>
        </mxCell>
        <mxCell id="ZzOdG_4jZLLu2tyRgjDv-4" value="PPA Chronos" style="swimlane;rounded=1;dashed=1;fillColor=#FFCD69;strokeColor=#d79b00;swimlaneFillColor=#FFFFCC;gradientColor=#ffffff;" parent="1" vertex="1">
          <mxGeometry x="780" y="215" width="292" height="160" as="geometry" />
        </mxCell>
        <mxCell id="ZzOdG_4jZLLu2tyRgjDv-5" value="Cron Job every 15 mins" style="swimlane;fontStyle=0;childLayout=stackLayout;horizontal=1;startSize=30;horizontalStack=0;resizeParent=1;resizeParentMax=0;resizeLast=0;collapsible=1;marginBottom=0;rounded=1;" parent="ZzOdG_4jZLLu2tyRgjDv-4" vertex="1">
          <mxGeometry x="30" y="40" width="195" height="90" as="geometry" />
        </mxCell>
        <mxCell id="ZzOdG_4jZLLu2tyRgjDv-6" value="Process: v2/capabilities + persist" style="text;strokeColor=none;fillColor=none;align=left;verticalAlign=middle;spacingLeft=4;spacingRight=4;overflow=hidden;points=[[0,0.5],[1,0.5]];portConstraint=eastwest;rotatable=0;rounded=1;" parent="ZzOdG_4jZLLu2tyRgjDv-5" vertex="1">
          <mxGeometry y="30" width="195" height="30" as="geometry" />
        </mxCell>
        <mxCell id="ZzOdG_4jZLLu2tyRgjDv-7" value="Process: daily_records + persist" style="text;strokeColor=none;fillColor=none;align=left;verticalAlign=middle;spacingLeft=4;spacingRight=4;overflow=hidden;points=[[0,0.5],[1,0.5]];portConstraint=eastwest;rotatable=0;rounded=1;" parent="ZzOdG_4jZLLu2tyRgjDv-5" vertex="1">
          <mxGeometry y="60" width="195" height="30" as="geometry" />
        </mxCell>
        <mxCell id="ZzOdG_4jZLLu2tyRgjDv-10" value="PPA Application DB" style="swimlane;fontStyle=0;childLayout=stackLayout;horizontal=1;startSize=30;horizontalStack=0;resizeParent=1;resizeParentMax=0;resizeLast=0;collapsible=1;marginBottom=0;fillColor=#FFCD69;gradientColor=#ffffff;" parent="1" vertex="1">
          <mxGeometry x="1201" y="196" width="165" height="330" as="geometry" />
        </mxCell>
        <mxCell id="ZzOdG_4jZLLu2tyRgjDv-11" value="ppa_cust_DEVICE_info" style="text;strokeColor=none;fillColor=none;align=left;verticalAlign=middle;spacingLeft=4;spacingRight=4;overflow=hidden;points=[[0,0.5],[1,0.5]];portConstraint=eastwest;rotatable=0;" parent="ZzOdG_4jZLLu2tyRgjDv-10" vertex="1">
          <mxGeometry y="30" width="165" height="60" as="geometry" />
        </mxCell>
        <mxCell id="ZzOdG_4jZLLu2tyRgjDv-12" value="ppa_cust_SITE_info" style="text;strokeColor=none;fillColor=none;align=left;verticalAlign=middle;spacingLeft=4;spacingRight=4;overflow=hidden;points=[[0,0.5],[1,0.5]];portConstraint=eastwest;rotatable=0;" parent="ZzOdG_4jZLLu2tyRgjDv-10" vertex="1">
          <mxGeometry y="90" width="165" height="60" as="geometry" />
        </mxCell>
        <mxCell id="ZzOdG_4jZLLu2tyRgjDv-13" value="ppa_RNI_device_info" style="text;strokeColor=none;fillColor=#E6E6E6;align=left;verticalAlign=middle;spacingLeft=4;spacingRight=4;overflow=hidden;points=[[0,0.5],[1,0.5]];portConstraint=eastwest;rotatable=0;" parent="ZzOdG_4jZLLu2tyRgjDv-10" vertex="1">
          <mxGeometry y="150" width="165" height="60" as="geometry" />
        </mxCell>
        <mxCell id="ZzOdG_4jZLLu2tyRgjDv-14" value="ppa_latest_press_read" style="text;strokeColor=none;fillColor=#E6E6E6;align=left;verticalAlign=middle;spacingLeft=4;spacingRight=4;overflow=hidden;points=[[0,0.5],[1,0.5]];portConstraint=eastwest;rotatable=0;" parent="ZzOdG_4jZLLu2tyRgjDv-10" vertex="1">
          <mxGeometry y="210" width="165" height="60" as="geometry" />
        </mxCell>
        <mxCell id="ZzOdG_4jZLLu2tyRgjDv-19" value="device" style="text;strokeColor=none;fillColor=none;align=left;verticalAlign=middle;spacingLeft=4;spacingRight=4;overflow=hidden;points=[[0,0.5],[1,0.5]];portConstraint=eastwest;rotatable=0;" parent="ZzOdG_4jZLLu2tyRgjDv-10" vertex="1">
          <mxGeometry y="270" width="165" height="60" as="geometry" />
        </mxCell>
        <mxCell id="ZzOdG_4jZLLu2tyRgjDv-16" value="" style="endArrow=classic;html=1;rounded=0;entryX=0;entryY=0.5;entryDx=0;entryDy=0;exitX=1;exitY=0.5;exitDx=0;exitDy=0;" parent="1" source="ZzOdG_4jZLLu2tyRgjDv-7" target="ZzOdG_4jZLLu2tyRgjDv-14" edge="1">
          <mxGeometry width="50" height="50" relative="1" as="geometry">
            <mxPoint x="1519" y="222" as="sourcePoint" />
            <mxPoint x="1252" y="299.25" as="targetPoint" />
          </mxGeometry>
        </mxCell>
        <mxCell id="ZzOdG_4jZLLu2tyRgjDv-17" value="" style="endArrow=classic;html=1;rounded=0;entryX=0;entryY=0.5;entryDx=0;entryDy=0;exitX=1;exitY=0.5;exitDx=0;exitDy=0;" parent="1" source="ZzOdG_4jZLLu2tyRgjDv-6" target="ZzOdG_4jZLLu2tyRgjDv-13" edge="1">
          <mxGeometry width="50" height="50" relative="1" as="geometry">
            <mxPoint x="1519" y="192" as="sourcePoint" />
            <mxPoint x="1387.8449999999998" y="156" as="targetPoint" />
          </mxGeometry>
        </mxCell>
        <mxCell id="ZzOdG_4jZLLu2tyRgjDv-27" value="" style="endArrow=classic;html=1;rounded=0;entryX=0;entryY=0.5;entryDx=0;entryDy=0;exitX=1;exitY=0.5;exitDx=0;exitDy=0;" parent="1" source="GJOkn2DgcXXOF6PlL42Y-38" target="ZzOdG_4jZLLu2tyRgjDv-12" edge="1">
          <mxGeometry width="50" height="50" relative="1" as="geometry">
            <mxPoint x="835" y="122" as="sourcePoint" />
            <mxPoint x="1196.9999999999995" y="67" as="targetPoint" />
          </mxGeometry>
        </mxCell>
        <mxCell id="ZzOdG_4jZLLu2tyRgjDv-28" value="" style="endArrow=classic;html=1;rounded=0;exitX=0;exitY=0.5;exitDx=0;exitDy=0;strokeColor=#A6A6A6;shadow=0;entryX=1;entryY=0.5;entryDx=0;entryDy=0;" parent="1" source="ZzOdG_4jZLLu2tyRgjDv-11" target="ZzOdG_4jZLLu2tyRgjDv-21" edge="1">
          <mxGeometry width="50" height="50" relative="1" as="geometry">
            <mxPoint x="1095" y="60" as="sourcePoint" />
            <mxPoint x="955" y="292" as="targetPoint" />
          </mxGeometry>
        </mxCell>
        <mxCell id="ZzOdG_4jZLLu2tyRgjDv-29" value="" style="endArrow=classic;html=1;rounded=0;exitX=0;exitY=0.5;exitDx=0;exitDy=0;strokeColor=#A6A6A6;shadow=0;entryX=1;entryY=0.5;entryDx=0;entryDy=0;" parent="1" source="ZzOdG_4jZLLu2tyRgjDv-12" target="ZzOdG_4jZLLu2tyRgjDv-21" edge="1">
          <mxGeometry width="50" height="50" relative="1" as="geometry">
            <mxPoint x="1109.9999999999995" y="75" as="sourcePoint" />
            <mxPoint x="970" y="307" as="targetPoint" />
          </mxGeometry>
        </mxCell>
        <mxCell id="ZzOdG_4jZLLu2tyRgjDv-30" value="" style="endArrow=classic;html=1;rounded=0;exitX=0;exitY=0.5;exitDx=0;exitDy=0;strokeColor=#A6A6A6;shadow=0;entryX=1;entryY=0.5;entryDx=0;entryDy=0;" parent="1" source="ZzOdG_4jZLLu2tyRgjDv-13" target="ZzOdG_4jZLLu2tyRgjDv-21" edge="1">
          <mxGeometry width="50" height="50" relative="1" as="geometry">
            <mxPoint x="1124.9999999999995" y="90" as="sourcePoint" />
            <mxPoint x="985" y="322" as="targetPoint" />
          </mxGeometry>
        </mxCell>
        <mxCell id="ZzOdG_4jZLLu2tyRgjDv-31" value="" style="endArrow=classic;html=1;rounded=0;exitX=0;exitY=0.5;exitDx=0;exitDy=0;strokeColor=#A6A6A6;shadow=0;entryX=1;entryY=0.5;entryDx=0;entryDy=0;" parent="1" source="ZzOdG_4jZLLu2tyRgjDv-14" target="ZzOdG_4jZLLu2tyRgjDv-21" edge="1">
          <mxGeometry width="50" height="50" relative="1" as="geometry">
            <mxPoint x="1139.9999999999995" y="105" as="sourcePoint" />
            <mxPoint x="955" y="292" as="targetPoint" />
          </mxGeometry>
        </mxCell>
        <mxCell id="ZzOdG_4jZLLu2tyRgjDv-32" value="" style="endArrow=classic;html=1;rounded=0;exitX=0;exitY=0.5;exitDx=0;exitDy=0;strokeColor=#A6A6A6;shadow=0;entryX=1;entryY=0.5;entryDx=0;entryDy=0;" parent="1" source="ZzOdG_4jZLLu2tyRgjDv-19" target="ZzOdG_4jZLLu2tyRgjDv-21" edge="1">
          <mxGeometry width="50" height="50" relative="1" as="geometry">
            <mxPoint x="1154.9999999999995" y="120" as="sourcePoint" />
            <mxPoint x="955" y="292" as="targetPoint" />
          </mxGeometry>
        </mxCell>
        <mxCell id="ZzOdG_4jZLLu2tyRgjDv-34" value="&lt;b&gt;A.2.1&lt;br&gt;&lt;/b&gt;" style="ellipse;whiteSpace=wrap;html=1;gradientColor=#ffffff;fillColor=#3399FF;" parent="1" vertex="1">
          <mxGeometry x="1101" y="126" width="45" height="30" as="geometry" />
        </mxCell>
        <mxCell id="ZzOdG_4jZLLu2tyRgjDv-35" value="&lt;b&gt;A.2.2&lt;br&gt;&lt;/b&gt;" style="ellipse;whiteSpace=wrap;html=1;gradientColor=#ffffff;fillColor=#3399FF;" parent="1" vertex="1">
          <mxGeometry x="1080" y="542" width="45" height="30" as="geometry" />
        </mxCell>
        <mxCell id="ZzOdG_4jZLLu2tyRgjDv-36" value="&lt;b&gt;A.3.1&lt;br&gt;&lt;/b&gt;" style="ellipse;whiteSpace=wrap;html=1;gradientColor=#ffffff;fillColor=#3399FF;" parent="1" vertex="1">
          <mxGeometry x="1101" y="292" width="45" height="30" as="geometry" />
        </mxCell>
        <mxCell id="ZzOdG_4jZLLu2tyRgjDv-37" value="Current &lt;br&gt;In-Memory &lt;br&gt;Merge Process &lt;br style=&quot;font-size: 17px&quot;&gt;v1.0.0" style="text;html=1;strokeColor=none;fillColor=none;align=center;verticalAlign=middle;whiteSpace=wrap;rounded=0;dashed=1;dashPattern=1 1;fontSize=17;shadow=1;sketch=0;" parent="1" vertex="1">
          <mxGeometry x="16" y="22" width="150" height="45" as="geometry" />
        </mxCell>
        <mxCell id="ZzOdG_4jZLLu2tyRgjDv-39" value="Dashboard &lt;br&gt;Sensor+Read&lt;br&gt;&amp;nbsp;Data" style="endArrow=classic;html=1;rounded=0;entryX=0;entryY=0.5;entryDx=0;entryDy=0;" parent="1" edge="1" target="ZzOdG_4jZLLu2tyRgjDv-41">
          <mxGeometry width="50" height="50" relative="1" as="geometry">
            <mxPoint x="60" y="322" as="sourcePoint" />
            <mxPoint x="240" y="572" as="targetPoint" />
          </mxGeometry>
        </mxCell>
        <mxCell id="ZzOdG_4jZLLu2tyRgjDv-46" value="" style="endArrow=classic;html=1;rounded=0;entryX=0;entryY=0.5;entryDx=0;entryDy=0;exitX=1;exitY=0.5;exitDx=0;exitDy=0;" parent="1" target="ZzOdG_4jZLLu2tyRgjDv-44" edge="1" source="ZzOdG_4jZLLu2tyRgjDv-41">
          <mxGeometry width="50" height="50" relative="1" as="geometry">
            <mxPoint x="420" y="507" as="sourcePoint" />
            <mxPoint x="543" y="598" as="targetPoint" />
          </mxGeometry>
        </mxCell>
        <mxCell id="ZzOdG_4jZLLu2tyRgjDv-47" value="" style="endArrow=classic;html=1;rounded=0;entryX=1;entryY=0.5;entryDx=0;entryDy=0;exitX=0;exitY=0.5;exitDx=0;exitDy=0;" parent="1" source="ZzOdG_4jZLLu2tyRgjDv-45" target="ZzOdG_4jZLLu2tyRgjDv-42" edge="1">
          <mxGeometry width="50" height="50" relative="1" as="geometry">
            <mxPoint x="543" y="628" as="sourcePoint" />
            <mxPoint x="424.5" y="537" as="targetPoint" />
          </mxGeometry>
        </mxCell>
        <mxCell id="ZzOdG_4jZLLu2tyRgjDv-116" value="&lt;b&gt;A.1.3&lt;/b&gt;" style="ellipse;whiteSpace=wrap;html=1;gradientColor=#ffffff;fillColor=#3399FF;" parent="1" vertex="1">
          <mxGeometry x="465" y="512" width="45" height="30" as="geometry" />
        </mxCell>
      </root>
    </mxGraphModel>
  </diagram>
</mxfile>
